<svg width="20" height="20" viewBox="0 0 20 20" fill="none" xmlns="http://www.w3.org/2000/svg">
<path d="M12.9742 13.824C13.2089 14.0587 13.5894 14.0587 13.824 13.824C14.0587 13.5894 14.0587 13.2089 13.824 12.9742L10.8498 10L13.824 7.02577C14.0587 6.79112 14.0587 6.41066 13.824 6.17599C13.5894 5.94134 13.2089 5.94134 12.9742 6.17599L10 9.15023L7.02577 6.17599C6.79112 5.94134 6.41066 5.94133 6.17599 6.17599C5.94134 6.41066 5.94134 6.79112 6.17599 7.02577L9.15023 10L6.17599 12.9742C5.94133 13.2089 5.94134 13.5894 6.17599 13.824C6.41066 14.0587 6.79112 14.0587 7.02577 13.824L10 10.8498L12.9742 13.824Z" fill="#FAFAFA"/>
<rect x="1" y="1" width="18" height="18" rx="5" stroke="white" stroke-opacity="0.8" stroke-width="2"/>
</svg>
