<svg width="18" height="18" viewBox="0 0 18 18" fill="none" xmlns="http://www.w3.org/2000/svg">
<path fill-rule="evenodd" clip-rule="evenodd" d="M3 0C1.34315 0 0 1.34315 0 3V15C0 16.6569 1.34315 18 3 18H15C16.6569 18 18 16.6569 18 15V3C18 1.34315 16.6569 0 15 0H3ZM4.92715 13.0728C4.36562 12.5113 4.36562 11.6009 4.92715 11.0393L6.9666 8.99989L4.92706 6.96035C4.36553 6.39882 4.36553 5.48839 4.92706 4.92686C5.4886 4.36533 6.39902 4.36533 6.96055 4.92686L9.00009 6.9664L11.0395 4.92695C11.6011 4.36542 12.5115 4.36542 13.073 4.92695C13.6346 5.48848 13.6346 6.3989 13.073 6.96043L11.0336 8.99989L13.0729 11.0392C13.6345 11.6008 13.6345 12.5112 13.0729 13.0727C12.5114 13.6343 11.601 13.6343 11.0395 13.0727L9.00009 11.0334L6.96064 13.0728C6.39911 13.6344 5.48868 13.6344 4.92715 13.0728Z" fill="white" fill-opacity="0.65"/>
</svg>
