<svg width="19" height="19" viewBox="0 0 19 19" fill="none" xmlns="http://www.w3.org/2000/svg">
<path fill-rule="evenodd" clip-rule="evenodd" d="M2.03918 0.705688C0.934615 0.705688 0.0391846 1.60112 0.0391846 2.70569V16.7057C0.0391846 17.8103 0.934615 18.7057 2.03918 18.7057H16.0392C17.1438 18.7057 18.0392 17.8103 18.0392 16.7057V2.70569C18.0392 1.60112 17.1438 0.705688 16.0392 0.705688H2.03918ZM9.0391 3.88679C8.15426 3.88679 7.43695 4.6041 7.43695 5.48894V8.89437H7.15382C7.0956 8.89575 7.03733 8.89645 6.9792 8.89715C6.51704 8.90268 6.0637 8.90811 5.71564 9.25618C5.0908 9.88101 5.0908 10.8941 5.71564 11.5189L7.80029 13.6036C7.83329 13.6437 7.86854 13.6826 7.90602 13.7201C8.53178 14.3458 9.54633 14.3458 10.1721 13.7201L12.3608 11.5313C12.9866 10.9056 12.9866 9.89104 12.3608 9.26529C11.9599 8.86435 11.2434 8.88829 10.8193 8.90247C10.7517 8.90473 10.6915 8.90674 10.6412 8.90674V5.48893C10.6412 4.60409 9.92394 3.88679 9.0391 3.88679Z" fill="white" fill-opacity="0.65"/>
</svg>
