<svg width="19" height="18" viewBox="0 0 19 18" fill="none" xmlns="http://www.w3.org/2000/svg">
<path d="M0 1.8C0 0.805887 0.805888 0 1.8 0H3.70599V3.70599H0V1.8Z" fill="#4CD9FF" fill-opacity="0.80"/>
<path d="M0 4.76561H3.70599V8.4716H0V4.76561Z" fill="#11CFFF" fill-opacity="0.80"/>
<path d="M0 9.53044H3.70599V13.2364H0V9.53044Z" fill="#4CD9FF" fill-opacity="0.80"/>
<path d="M0 14.294H3.70599V18H1.8C0.805887 18 0 17.1941 0 16.2V14.294Z" fill="#8AE6FF" fill-opacity="0.80"/>
<path d="M4.76378 0H8.46977V3.70599H4.76378V0Z" fill="#26ABFA" fill-opacity="0.80"/>
<path d="M4.76378 4.76561H8.46977V8.4716H4.76378V4.76561Z" fill="#3A87F5" fill-opacity="0.80"/>
<path d="M4.76378 9.53044H8.46977V13.2364H4.76378V9.53044Z" fill="#11CFFF" fill-opacity="0.80"/>
<path d="M4.76378 14.294H8.46977V18H4.76378V14.294Z" fill="#4CD9FF" fill-opacity="0.80"/>
<path d="M9.53122 0H13.2372V3.70599H9.53122V0Z" fill="#FFB81E" fill-opacity="0.80"/>
<path d="M9.53122 4.76561H13.2372V8.4716H9.53122V4.76561Z" fill="#FF7A2B" fill-opacity="0.80"/>
<path d="M9.53122 9.53044H13.2372V13.2364H9.53122V9.53044Z" fill="#3557BA" fill-opacity="0.80"/>
<path d="M9.52976 14.294H13.2358V18H9.52976V14.294Z" fill="#11CFFF" fill-opacity="0.80"/>
<path d="M14.2956 0H16.2016C17.1957 0 18.0016 0.805888 18.0016 1.8V3.70599H14.2956V0Z" fill="#FF7A2B" fill-opacity="0.80"/>
<path d="M14.2956 4.76561H18.0016V8.4716H14.2956V4.76561Z" fill="#FF3D38" fill-opacity="0.80"/>
<path d="M14.2956 9.53044H18.0016V13.2364H14.2956V9.53044Z" fill="#FF7A2B" fill-opacity="0.80"/>
<path d="M14.2956 14.294H18.0016V16.2C18.0016 17.1941 17.1957 18 16.2016 18H14.2956V14.294Z" fill="#353D9E" fill-opacity="0.80"/>
</svg>
